# xmcd CD database file
#
# Track frame offsets:
#	150
#	19097
#	32268
#	42533
#	54402
#	66871
#	76986
#	89931
#	103412
#	119293
#	135431
#	149990
#	168190
#
# Disc length: 2452 seconds
#
# Revision: 0
# Processed by: cddbd v1.5.2PL0 Copyright (c) Steve Scherf et al.
# Submitted via: CDex 1.70beta2
#
DISCID=b909920d
DTITLE=Jeb Loy Nichols - Parish Bar
DYEAR=2009
DGENRE=Americana
TTITLE0=Countrymusicdisco
TTITLE1=Whole Thing Going On
TTITLE2=Just a Country Boy
TTITLE3=I'm Blue I'm Lonesome Too
TTITLE4=Days Are Mighty
TTITLE5=Too Much Not Enough
TTITLE6=Satan's Helper
TTITLE7=Foggy Road Ride
TTITLE8=My Kind
TTITLE9=Neath the Cold Ground
TTITLE10=So Sad
TTITLE11=Dr Noblio
TTITLE12=I Took a Memory to Lunch
EXTD=YEAR: 2009
EXTT0=
EXTT1=
EXTT2=
EXTT3=
EXTT4=
EXTT5=
EXTT6=
EXTT7=
EXTT8=
EXTT9=
EXTT10=
EXTT11=
EXTT12=
PLAYORDER=
